<mxfile host="app.diagrams.net" agent="Mozilla/5.0 (Windows NT 10.0; Win64; x64) AppleWebKit/537.36 (KHTML, like Gecko) Chrome/135.0.0.0 Safari/537.36" version="27.0.1">
  <diagram name="第 1 页" id="glcMqT_4qMhLM6WJ1He7">
    <mxGraphModel dx="1426" dy="795" grid="1" gridSize="10" guides="1" tooltips="1" connect="1" arrows="1" fold="1" page="1" pageScale="1" pageWidth="827" pageHeight="1169" math="0" shadow="0">
      <root>
        <mxCell id="0" />
        <mxCell id="1" parent="0" />
        <mxCell id="Obn1dP8ThIqdb4PHVTvH-1" value="UserController" style="swimlane;fontStyle=1;align=center;verticalAlign=top;childLayout=stackLayout;horizontal=1;startSize=26;horizontalStack=0;resizeParent=1;resizeParentMax=0;resizeLast=0;collapsible=1;marginBottom=0;whiteSpace=wrap;html=1;" vertex="1" parent="1">
          <mxGeometry x="520" y="40" width="230" height="200" as="geometry" />
        </mxCell>
        <mxCell id="Obn1dP8ThIqdb4PHVTvH-2" value="-userService : UserService" style="text;strokeColor=none;fillColor=none;align=left;verticalAlign=top;spacingLeft=4;spacingRight=4;overflow=hidden;rotatable=0;points=[[0,0.5],[1,0.5]];portConstraint=eastwest;whiteSpace=wrap;html=1;" vertex="1" parent="Obn1dP8ThIqdb4PHVTvH-1">
          <mxGeometry y="26" width="230" height="26" as="geometry" />
        </mxCell>
        <mxCell id="Obn1dP8ThIqdb4PHVTvH-3" value="" style="line;strokeWidth=1;fillColor=none;align=left;verticalAlign=middle;spacingTop=-1;spacingLeft=3;spacingRight=3;rotatable=0;labelPosition=right;points=[];portConstraint=eastwest;strokeColor=inherit;" vertex="1" parent="Obn1dP8ThIqdb4PHVTvH-1">
          <mxGeometry y="52" width="230" height="8" as="geometry" />
        </mxCell>
        <mxCell id="Obn1dP8ThIqdb4PHVTvH-4" value="&lt;div&gt;+Register(UserRegisterRequest userRegisterRequest):BaseResponse&lt;/div&gt;&lt;div&gt;&lt;br&gt;&lt;/div&gt;&lt;div&gt;+Login (UserLoginRequest userLoginRequest):BaseResponse&lt;/div&gt;&lt;div&gt;&lt;br&gt;&lt;/div&gt;&lt;div&gt;+updateById(UserUpdateRequest userUpdateRequest):BaseResponse&lt;/div&gt;" style="text;strokeColor=none;fillColor=none;align=left;verticalAlign=top;spacingLeft=4;spacingRight=4;overflow=hidden;rotatable=0;points=[[0,0.5],[1,0.5]];portConstraint=eastwest;whiteSpace=wrap;html=1;" vertex="1" parent="Obn1dP8ThIqdb4PHVTvH-1">
          <mxGeometry y="60" width="230" height="140" as="geometry" />
        </mxCell>
        <mxCell id="Obn1dP8ThIqdb4PHVTvH-22" value="" style="endArrow=classic;html=1;rounded=0;exitX=0.464;exitY=1.003;exitDx=0;exitDy=0;exitPerimeter=0;dashed=1;" edge="1" parent="1" source="Obn1dP8ThIqdb4PHVTvH-4">
          <mxGeometry width="50" height="50" relative="1" as="geometry">
            <mxPoint x="570" y="310" as="sourcePoint" />
            <mxPoint x="627" y="300" as="targetPoint" />
          </mxGeometry>
        </mxCell>
        <mxCell id="Obn1dP8ThIqdb4PHVTvH-24" value="UserService" style="swimlane;fontStyle=1;align=center;verticalAlign=top;childLayout=stackLayout;horizontal=1;startSize=26;horizontalStack=0;resizeParent=1;resizeParentMax=0;resizeLast=0;collapsible=1;marginBottom=0;whiteSpace=wrap;html=1;" vertex="1" parent="1">
          <mxGeometry x="520" y="300" width="230" height="166" as="geometry" />
        </mxCell>
        <mxCell id="Obn1dP8ThIqdb4PHVTvH-27" value="&lt;div&gt;+Register(UserRegisterRequest userRegisterRequest):UserVO&lt;/div&gt;&lt;div&gt;&lt;br&gt;&lt;/div&gt;&lt;div&gt;+Login (UserLoginRequest userLoginRequest):String&lt;/div&gt;&lt;div&gt;&lt;br&gt;&lt;/div&gt;&lt;div&gt;+updateById(UserUpdateRequest userUpdateRequest):UserVO&lt;/div&gt;" style="text;strokeColor=none;fillColor=none;align=left;verticalAlign=top;spacingLeft=4;spacingRight=4;overflow=hidden;rotatable=0;points=[[0,0.5],[1,0.5]];portConstraint=eastwest;whiteSpace=wrap;html=1;" vertex="1" parent="Obn1dP8ThIqdb4PHVTvH-24">
          <mxGeometry y="26" width="230" height="140" as="geometry" />
        </mxCell>
        <mxCell id="Obn1dP8ThIqdb4PHVTvH-29" value="" style="endArrow=block;endFill=0;endSize=12;html=1;rounded=0;" edge="1" parent="1">
          <mxGeometry width="160" relative="1" as="geometry">
            <mxPoint x="635" y="530" as="sourcePoint" />
            <mxPoint x="634.66" y="470" as="targetPoint" />
          </mxGeometry>
        </mxCell>
        <mxCell id="Obn1dP8ThIqdb4PHVTvH-30" value="UserServiceImpl" style="swimlane;fontStyle=1;align=center;verticalAlign=top;childLayout=stackLayout;horizontal=1;startSize=26;horizontalStack=0;resizeParent=1;resizeParentMax=0;resizeLast=0;collapsible=1;marginBottom=0;whiteSpace=wrap;html=1;" vertex="1" parent="1">
          <mxGeometry x="530" y="530" width="230" height="200" as="geometry" />
        </mxCell>
        <mxCell id="Obn1dP8ThIqdb4PHVTvH-31" value="-userMapper : UserMapper" style="text;strokeColor=none;fillColor=none;align=left;verticalAlign=top;spacingLeft=4;spacingRight=4;overflow=hidden;rotatable=0;points=[[0,0.5],[1,0.5]];portConstraint=eastwest;whiteSpace=wrap;html=1;" vertex="1" parent="Obn1dP8ThIqdb4PHVTvH-30">
          <mxGeometry y="26" width="230" height="26" as="geometry" />
        </mxCell>
        <mxCell id="Obn1dP8ThIqdb4PHVTvH-32" value="" style="line;strokeWidth=1;fillColor=none;align=left;verticalAlign=middle;spacingTop=-1;spacingLeft=3;spacingRight=3;rotatable=0;labelPosition=right;points=[];portConstraint=eastwest;strokeColor=inherit;" vertex="1" parent="Obn1dP8ThIqdb4PHVTvH-30">
          <mxGeometry y="52" width="230" height="8" as="geometry" />
        </mxCell>
        <mxCell id="Obn1dP8ThIqdb4PHVTvH-33" value="&lt;div&gt;+Register(UserRegisterRequest userRegisterRequest):UserVO&lt;/div&gt;&lt;div&gt;&lt;br&gt;&lt;/div&gt;&lt;div&gt;+Login (UserLoginRequest userLoginRequest):String&lt;/div&gt;&lt;div&gt;&lt;br&gt;&lt;/div&gt;&lt;div&gt;+updateById(UserUpdateRequest userUpdateRequest):UserVO&lt;/div&gt;" style="text;strokeColor=none;fillColor=none;align=left;verticalAlign=top;spacingLeft=4;spacingRight=4;overflow=hidden;rotatable=0;points=[[0,0.5],[1,0.5]];portConstraint=eastwest;whiteSpace=wrap;html=1;" vertex="1" parent="Obn1dP8ThIqdb4PHVTvH-30">
          <mxGeometry y="60" width="230" height="140" as="geometry" />
        </mxCell>
        <mxCell id="Obn1dP8ThIqdb4PHVTvH-34" value="" style="endArrow=classic;html=1;rounded=0;dashed=1;" edge="1" parent="1">
          <mxGeometry width="50" height="50" relative="1" as="geometry">
            <mxPoint x="530" y="640" as="sourcePoint" />
            <mxPoint x="440" y="640" as="targetPoint" />
          </mxGeometry>
        </mxCell>
        <mxCell id="Obn1dP8ThIqdb4PHVTvH-35" value="UserMapper" style="swimlane;fontStyle=1;align=center;verticalAlign=top;childLayout=stackLayout;horizontal=1;startSize=26;horizontalStack=0;resizeParent=1;resizeParentMax=0;resizeLast=0;collapsible=1;marginBottom=0;whiteSpace=wrap;html=1;" vertex="1" parent="1">
          <mxGeometry x="210" y="564" width="230" height="166" as="geometry" />
        </mxCell>
        <mxCell id="Obn1dP8ThIqdb4PHVTvH-36" value="&lt;div&gt;+deleteById(userId:Long):int&lt;/div&gt;&lt;div&gt;&lt;br&gt;&lt;/div&gt;&lt;div&gt;+insert (user:User):int&lt;/div&gt;&lt;div&gt;&lt;br&gt;&lt;/div&gt;&lt;div&gt;+updateById(user:User):int&lt;/div&gt;" style="text;strokeColor=none;fillColor=none;align=left;verticalAlign=top;spacingLeft=4;spacingRight=4;overflow=hidden;rotatable=0;points=[[0,0.5],[1,0.5]];portConstraint=eastwest;whiteSpace=wrap;html=1;" vertex="1" parent="Obn1dP8ThIqdb4PHVTvH-35">
          <mxGeometry y="26" width="230" height="140" as="geometry" />
        </mxCell>
        <mxCell id="Obn1dP8ThIqdb4PHVTvH-37" value="" style="endArrow=classic;html=1;rounded=0;dashed=1;" edge="1" parent="1">
          <mxGeometry width="50" height="50" relative="1" as="geometry">
            <mxPoint x="320" y="560" as="sourcePoint" />
            <mxPoint x="320" y="500" as="targetPoint" />
          </mxGeometry>
        </mxCell>
        <mxCell id="Obn1dP8ThIqdb4PHVTvH-42" value="User" style="swimlane;fontStyle=1;align=center;verticalAlign=top;childLayout=stackLayout;horizontal=1;startSize=26;horizontalStack=0;resizeParent=1;resizeParentMax=0;resizeLast=0;collapsible=1;marginBottom=0;whiteSpace=wrap;html=1;" vertex="1" parent="1">
          <mxGeometry x="230" y="310" width="170" height="190" as="geometry" />
        </mxCell>
        <mxCell id="Obn1dP8ThIqdb4PHVTvH-43" value="- userId:Long&lt;div&gt;- userName:String&lt;/div&gt;&lt;div&gt;- userPassword:String&lt;/div&gt;&lt;div&gt;- nickName:String&lt;/div&gt;&lt;div&gt;- userRole:String&lt;/div&gt;&lt;div&gt;- userProfile:String&lt;/div&gt;&lt;div&gt;- userAvatar:String&lt;br&gt;&lt;div&gt;&lt;br&gt;&lt;/div&gt;&lt;/div&gt;" style="text;strokeColor=none;fillColor=none;align=left;verticalAlign=top;spacingLeft=4;spacingRight=4;overflow=hidden;rotatable=0;points=[[0,0.5],[1,0.5]];portConstraint=eastwest;whiteSpace=wrap;html=1;" vertex="1" parent="Obn1dP8ThIqdb4PHVTvH-42">
          <mxGeometry y="26" width="170" height="114" as="geometry" />
        </mxCell>
        <mxCell id="Obn1dP8ThIqdb4PHVTvH-44" value="" style="line;strokeWidth=1;fillColor=none;align=left;verticalAlign=middle;spacingTop=-1;spacingLeft=3;spacingRight=3;rotatable=0;labelPosition=right;points=[];portConstraint=eastwest;strokeColor=inherit;" vertex="1" parent="Obn1dP8ThIqdb4PHVTvH-42">
          <mxGeometry y="140" width="170" height="8" as="geometry" />
        </mxCell>
        <mxCell id="Obn1dP8ThIqdb4PHVTvH-45" value="&amp;nbsp;+ getter()&lt;div&gt;&amp;nbsp;+ setter()&lt;/div&gt;" style="text;strokeColor=none;fillColor=none;align=left;verticalAlign=top;spacingLeft=4;spacingRight=4;overflow=hidden;rotatable=0;points=[[0,0.5],[1,0.5]];portConstraint=eastwest;whiteSpace=wrap;html=1;" vertex="1" parent="Obn1dP8ThIqdb4PHVTvH-42">
          <mxGeometry y="148" width="170" height="42" as="geometry" />
        </mxCell>
      </root>
    </mxGraphModel>
  </diagram>
</mxfile>
